<svg xmlns="http://www.w3.org/2000/svg" viewBox="0 0 1024 1024" width="1024" height="1024">
<circle cx="512" cy="512" r="512" fill="#072B50"/>
<path d="M 299.0 528.5 L 297.5 292.0 L 338.0 291.5 L 338.5 484.0 L 299.0 528.5 Z" fill="#E1C87E"/>
<path d="M 338.0 731.5 L 297.5 731.0 L 297.5 591.0 L 384.5 492.0 L 384.5 292.0 L 424.5 292.0 L 424.5 439.0 L 428.0 442.5 L 563.0 291.5 L 614.0 292.5 L 339.5 602.0 L 337.5 608.0 L 338.0 731.5 Z" fill="#E1C87E"/>
<path d="M 737.0 731.5 L 687.0 731.5 L 488.5 502.0 L 674.0 291.5 L 724.5 293.0 L 551.5 487.0 L 541.5 502.0 L 737.0 731.5 Z" fill="#E1C87E"/>
<path d="M 623.0 731.5 L 571.0 731.5 L 438.5 577.0 L 430.5 566.0 L 457.0 536.5 L 623.0 731.5 Z" fill="#E1C87E"/>
<path d="M 424.0 731.5 L 384.5 731.0 L 384.5 620.0 L 424.0 574.5 L 424.0 731.5 Z" fill="#E1C87E"/>
</svg>